#!OML:ASF F:\VICON\USERDATA\INSTALL\rory3\rory3.ASF
:FULLY-SPECIFIED
:DEGREES
62
root 0.421757 17.8831 -13.6643 -1.68896 -5.49657 -5.95361
lowerback 9.48643 2.20794 6.40129
upperback -0.578744 3.78484 2.03473
thorax -5.66328 1.69912 -1.98735
lowerneck -17.7127 -3.36166 -1.60989
upperneck 22.088 -4.27694 0.12578
head 9.99342 -2.09737 -0.274105
rclavicle -2.1065e-014 -5.56597e-015
rhumerus -22.5179 -8.43715 -81.0925
rradius 33.1215
rwrist -1.57162
rhand -21.0525 23.0008
rfingers 7.12502
rthumb 5.32366 -6.91233
lclavicle -2.1065e-014 -5.56597e-015
lhumerus -37.3414 7.76842 83.0948
lradius 19.66
lwrist 1.40401
lhand -27.6156 19.1111
lfingers 7.12502
lthumb -1.01461 49.0885
rfemur 11.5018 5.16261 31.4374
rtibia 31.192
rfoot -13.2321 -0.894045
rtoes -9.67365
lfemur -23.0788 -3.59141 -14.349
ltibia 20.2896
lfoot -2.58522 -1.62381
ltoes -3.67017
63
root 0.443414 17.9037 -13.451 -1.84994 -5.57984 -5.33919
lowerback 9.60037 2.26441 5.84559
upperback -0.821972 3.81051 1.86685
thorax -6.00586 1.71143 -1.87044
lowerneck -17.4045 -3.39951 -1.57976
upperneck 22.3152 -4.34919 0.127193
head 10.0167 -2.12897 -0.285429
rclavicle -2.13725e-014 -2.3059e-014
rhumerus -23.3925 -8.85411 -80.8977
rradius 33.0477
rwrist -1.51525
rhand -20.5583 23.1149
rfingers 7.12502
rthumb 5.80083 -6.78565
lclavicle -2.13725e-014 -2.3059e-014
lhumerus -37.6272 8.10519 82.6966
lradius 18.961
lwrist 1.40513
lhand -27.5114 15.6406
lfingers 7.12502
lthumb -0.913997 45.6184
rfemur 11.0524 5.11565 30.4863
rtibia 33.1614
rfoot -11.2275 0.168471
rtoes -7.62965
lfemur -22.4714 -3.57369 -15.1937
ltibia 20.3968
lfoot -2.16944 -3.18639
ltoes -3.418
64
root 0.461848 17.9231 -13.2391 -2.04191 -5.33352 -4.63396
lowerback 9.70875 2.24349 5.17558
upperback -1.02415 3.70989 1.6458
thorax -6.31383 1.66876 -1.72668
lowerneck -17.3035 -3.42737 -1.47692
upperneck 22.603 -4.4214 0.113279
head 10.0984 -2.15443 -0.318778
rclavicle 3.12146e-014 2.62396e-014
rhumerus -24.1282 -9.75068 -80.6932
rradius 32.7592
rwrist -1.05388
rhand -20.1758 23.2631
rfingers 7.12502
rthumb 6.17009 -6.62706
lclavicle 3.12146e-014 2.62396e-014
lhumerus -37.8223 8.45056 82.2162
lradius 18.4312
lwrist 1.0811
lhand -27.4781 14.5304
lfingers 7.12502
lthumb -0.881882 44.5083
rfemur 10.312 4.68073 29.3809
rtibia 35.4582
rfoot -8.84734 1.08477
rtoes -6.03194
lfemur -21.8411 -3.48637 -16.2529
ltibia 20.6075
lfoot -1.73482 -4.94659
ltoes -3.35461
65
root 0.479588 17.9402 -13.0275 -2.1881 -4.7936 -3.9725
lowerback 9.56574 2.10999 4.57907
upperback -1.20084 3.44821 1.44249
thorax -6.45671 1.55221 -1.56829
lowerneck -16.932 -3.44929 -1.39608
upperneck 22.7713 -4.48233 0.103211
head 10.0868 -2.17828 -0.338826
rclavicle 3.31101e-015 -1.13307e-014
rhumerus -24.7151 -10.6571 -80.4668
rradius 32.1862
rwrist -0.574752
rhand -20.2039 23.5313
rfingers 7.12502
rthumb 6.14295 -6.35965
lclavicle 3.31101e-015 -1.13307e-014
lhumerus -38.2108 8.55768 81.8969
lradius 18.4513
lwrist 0.895652
lhand -27.6765 17.3323
lfingers 7.12502
lthumb -1.07349 47.3094
rfemur 9.39228 3.83019 28.2176
rtibia 37.942
rfoot -5.94869 1.90826
rtoes -4.23471
lfemur -21.2807 -3.43953 -17.3249
ltibia 20.9934
lfoot -1.31049 -5.83583
ltoes -2.64224
66
root 0.496477 17.9539 -12.8198 -2.43298 -4.57436 -3.54803
lowerback 9.50511 2.01432 4.14565
upperback -1.18357 3.2629 1.39871
thorax -6.43433 1.47726 -1.34311
lowerneck -16.9985 -3.41794 -1.48388
upperneck 23.0259 -4.41963 0.112904
head 10.1931 -2.1542 -0.31685
rclavicle 2.45499e-014 2.26615e-014
rhumerus -25.0563 -11.412 -80.1965
rradius 31.6724
rwrist -0.0554743
rhand -20.3516 23.6853
rfingers 7.12502
rthumb 6.00039 -6.20975
lclavicle 2.45499e-014 2.26615e-014
lhumerus -38.2359 9.44876 81.3751
lradius 18.0166
lwrist 0.402074
lhand -27.3605 17.0643
lfingers 7.12502
lthumb -0.768234 47.0427
rfemur 8.46097 3.21484 27.2866
rtibia 40.496
rfoot -2.31964 2.67054
rtoes -2.18724
lfemur -20.6463 -2.9465 -18.1494
ltibia 21.5671
lfoot -1.66942 -5.65197
ltoes -5.41132
67
root 0.514287 17.9642 -12.6141 -2.64756 -4.50999 -3.11988
lowerback 9.44673 2.03735 3.78057
upperback -1.03147 3.23527 1.29464
thorax -6.25392 1.4807 -1.23836
lowerneck -17.7132 -3.40316 -1.47424
upperneck 23.3204 -4.39324 0.108466
head 10.4351 -2.13561 -0.333925
rclavicle 3.58371e-014 8.15017e-015
rhumerus -25.2475 -12.4089 -79.9094
rradius 31.2168
rwrist 0.408408
rhand -20.4483 24.2031
rfingers 7.12502
rthumb 5.90706 -5.69456
lclavicle 3.58371e-014 8.15017e-015
lhumerus -37.7805 10.2515 80.8549
lradius 17.4434
lwrist -0.332748
lhand -27.1424 16.6911
lfingers 7.12502
lthumb -0.557621 46.6701
rfemur 7.36391 2.78307 26.3313
rtibia 43.0767
rfoot 1.11003 3.44314
rtoes -1.21821
lfemur -20.1141 -2.3051 -18.9086
ltibia 22.2449
lfoot -2.09743 -5.16622
ltoes -7.3454
68
root 0.529843 17.9742 -12.4189 -2.83034 -4.32612 -2.87306
lowerback 9.52917 1.98317 3.59486
upperback -1.04664 3.1403 1.19975
thorax -6.32511 1.43712 -1.2244
lowerneck -17.835 -3.4247 -1.44778
upperneck 23.3571 -4.44951 0.179879
head 10.4733 -2.14941 -0.32383
rclavicle 4.78823e-014 -1.98785e-015
rhumerus -25.7621 -13.4488 -79.6011
rradius 30.7504
rwrist 1.03024
rhand -20.5607 24.4803
rfingers 7.12502
rthumb 5.79853 -5.42035
lclavicle 4.78823e-014 -1.98785e-015
lhumerus -37.736 10.4471 80.5218
lradius 17.3328
lwrist -0.293322
lhand -27.1387 17.0545
lfingers 7.12502
lthumb -0.554071 47.0336
rfemur 6.15897 2.28191 25.6339
rtibia 45.6624
rfoot 3.91371 4.34742
rtoes -0.330907
lfemur -19.5582 -1.5641 -19.4494
ltibia 22.7232
lfoot -2.62709 -5.65362
ltoes -6.39629
69
root 0.54716 17.9931 -12.2321 -3.19494 -4.23809 -2.85409
lowerback 9.9721 1.92448 3.69249
upperback -1.12338 3.09365 1.12903
thorax -6.65172 1.40091 -1.36676
lowerneck -17.403 -3.46034 -1.41772
upperneck 23.1403 -4.54804 0.316037
head 10.3159 -2.17981 -0.283456
rclavicle -6.4605e-015 -1.17283e-014
rhumerus -26.602 -14.205 -79.3298
rradius 30.7176
rwrist 0.862162
rhand -20.0185 23.6661
rfingers 7.12502
rthumb 6.322 -6.21956
lclavicle -6.4605e-015 -1.17283e-014
lhumerus -37.9323 10.5474 80.1375
lradius 17.3404
lwrist -0.402579
lhand -27.2974 16.9275
lfingers 7.12502
lthumb -0.707328 46.9061
rfemur 5.11588 1.86246 25.2218
rtibia 48.2304
rfoot 6.61844 5.10006
rtoes 4.13736
lfemur -18.6061 -0.770757 -19.7143
ltibia 22.943
lfoot -3.30456 -6.96878
ltoes -3.94106
70
root 0.565471 18.0172 -12.0406 -3.49313 -4.51866 -2.65702
lowerback 10.2852 2.02821 3.53282
upperback -1.05034 3.21939 1.05391
thorax -6.75017 1.46508 -1.38727
lowerneck -17.621 -3.48218 -1.31546
upperneck 23.1264 -4.61927 0.368562
head 10.3515 -2.19572 -0.295941
rclavicle 8.60986e-015 -5.76476e-015
rhumerus -27.1098 -15.1036 -79.0836
rradius 30.6488
rwrist 0.857287
rhand -19.4013 23.1908
rfingers 7.12502
rthumb 6.91779 -6.67612
lclavicle 8.60986e-015 -5.76476e-015
lhumerus -37.8042 10.6798 79.8825
lradius 17.4394
lwrist -0.608204
lhand -27.1572 17.8736
lfingers 7.12502
lthumb -0.571905 47.8526
rfemur 3.86665 1.82776 24.6493
rtibia 50.8062
rfoot 9.67643 5.77567
rtoes 9.82091
lfemur -17.6633 -0.112863 -20.0602
ltibia 22.9898
lfoot -3.70871 -7.69791
ltoes -1.87437
71
root 0.578621 18.0384 -11.8535 -3.71898 -4.87064 -2.54693
lowerback 10.4652 2.11264 3.41776
upperback -0.878914 3.31851 1.03937
thorax -6.67084 1.52068 -1.35738
lowerneck -18.0272 -3.51441 -1.16107
upperneck 23.0427 -4.6695 0.240238
head 10.3908 -2.21871 -0.380949
rclavicle 8.63782e-015 -1.25234e-014
rhumerus -27.2462 -16.1438 -78.8518
rradius 30.1614
rwrist 1.31742
rhand -19.148 23.5145
rfingers 7.12502
rthumb 7.16227 -6.34431
lclavicle 8.63782e-015 -1.25234e-014
lhumerus -37.494 10.5514 79.8828
lradius 17.7783
lwrist -0.336963
lhand -26.8179 18.3939
lfingers 7.12502
lthumb -0.244217 48.3735
rfemur 2.41549 1.99765 24.3091
rtibia 53.4043
rfoot 12.4869 6.10975
rtoes 14.8648
lfemur -16.7279 0.225918 -20.2291
ltibia 22.8327
lfoot -3.95408 -7.58621
ltoes -1.68612
72
root 0.590107 18.0553 -11.6791 -3.98905 -5.13802 -2.33729
lowerback 10.7434 2.10467 3.14856
upperback -0.728656 3.2816 1.05627
thorax -6.68619 1.51325 -1.19235
lowerneck -18.2066 -3.4496 -1.1436
upperneck 22.825 -4.5589 0.171033
head 10.3427 -2.17547 -0.393368
rclavicle -3.66789e-014 -1.05356e-014
rhumerus -27.3789 -16.7714 -78.6537
rradius 29.8171
rwrist 1.29787
rhand -18.816 23.6806
rfingers 7.12502
rthumb 7.48278 -6.16708
lclavicle -3.66789e-014 -1.05356e-014
lhumerus -37.3256 10.4055 80.002
lradius 18.1533
lwrist 0.326971
lhand -26.9512 17.4552
lfingers 7.12502
lthumb -0.372908 47.4346
rfemur 0.980806 2.16908 23.9002
rtibia 56.0495
rfoot 14.8106 6.0991
rtoes 18.512
lfemur -15.6201 0.425893 -20.5152
ltibia 22.453
lfoot -4.08917 -7.33881
ltoes -0.27093
73
root 0.607363 18.0678 -11.5032 -4.2693 -5.29393 -1.92106
lowerback 11.0737 2.0531 2.73772
upperback -0.65183 3.16654 1.00755
thorax -6.81505 1.46849 -1.00796
lowerneck -18.2395 -3.32749 -1.29409
upperneck 22.5711 -4.36364 0.272209
head 10.2623 -2.08819 -0.302677
rclavicle -2.10991e-014 -6.95746e-015
rhumerus -27.7437 -16.9992 -78.5535
rradius 29.6968
rwrist 1.16564
rhand -18.6758 23.6217
rfingers 7.12502
rthumb 7.61806 -6.22105
lclavicle -2.10991e-014 -6.95746e-015
lhumerus -37.2743 10.0024 80.2355
lradius 18.5821
lwrist 1.50083
lhand -26.8592 17.8867
lfingers 7.12502
lthumb -0.284118 47.8663
rfemur -0.428332 2.12362 23.1744
rtibia 58.7046
rfoot 16.0443 5.62702
rtoes 17.8315
lfemur -14.605 0.39612 -21.0724
ltibia 22.2293
lfoot -4.12091 -7.30952
ltoes 1.90774
